<svg width="65" height="40" viewBox="0 0 65 40" fill="none" xmlns="http://www.w3.org/2000/svg">
<g clip-path="url(#clip0_68_9)">
<path fill-rule="evenodd" clip-rule="evenodd" d="M64.3321 11.7588C64.3321 18.029 50.0846 23.1236 32.383 23.1236C14.6814 23.1236 0.433838 18.029 0.433838 11.7588V28.2182C0.433838 34.4886 14.6814 39.5831 32.383 39.5831C50.0846 39.5831 64.3321 34.4886 64.3321 28.2182V11.7588Z" fill="black"/>
<path fill-rule="evenodd" clip-rule="evenodd" d="M64.3321 11.7588C64.3321 18.029 50.0846 23.1236 32.383 23.1236C14.6814 23.1236 0.433838 18.029 0.433838 11.7588V28.2182C0.433838 34.4886 14.6814 39.5831 32.383 39.5831C50.0846 39.5831 64.3321 34.4886 64.3321 28.2182V11.7588Z" stroke="white" stroke-width="0.4957" stroke-linecap="round"/>
<path fill-rule="evenodd" clip-rule="evenodd" d="M32.383 23.1236C50.0846 23.1236 64.3321 18.029 64.3321 11.7586C64.3321 5.4882 50.0846 0.393799 32.383 0.393799C14.6814 0.393799 0.433838 5.4884 0.433838 11.7586C0.433838 18.0288 14.6814 23.1236 32.383 23.1236V23.1236Z" fill="black"/>
<path fill-rule="evenodd" clip-rule="evenodd" d="M32.383 23.1236C50.0846 23.1236 64.3321 18.029 64.3321 11.7586C64.3321 5.4882 50.0846 0.393799 32.383 0.393799C14.6814 0.393799 0.433838 5.4884 0.433838 11.7586C0.433838 18.0288 14.6814 23.1236 32.383 23.1236V23.1236Z" stroke="white" stroke-width="0.4957" stroke-linecap="round"/>
<path fill-rule="evenodd" clip-rule="evenodd" d="M25.0485 7.44151L27.639 10.9685L17.7089 12.928L19.8675 11.3604L4.75635 9.00901L8.64214 6.26581L23.3217 8.61711L25.0485 7.44151ZM39.2964 16.0631L37.1376 12.5361L46.2043 10.5767L44.909 12.1442L59.5886 14.4955L56.1344 16.847L41.0233 14.4955L39.2964 16.0631ZM34.1153 5.48201L44.0455 3.13062L44.4773 6.65771L41.8868 6.26581L37.1376 10.1847L32.3883 9.40091L37.1376 5.87381L34.1153 5.48201ZM29.7978 19.5902L20.2993 21.1578L19.8675 16.847L22.8898 17.6308L28.0709 13.3199L32.82 14.1037L27.2073 18.8064L29.7978 19.5902Z" fill="white"/>
</g>
<defs>
<clipPath id="clip0_68_9">
<rect width="65" height="40" fill="white"/>
</clipPath>
</defs>
</svg>
