<svg width="45" height="55" viewBox="0 0 45 55" fill="none" xmlns="http://www.w3.org/2000/svg">
<g clip-path="url(#clip0_53_11)">
<path fill-rule="evenodd" clip-rule="evenodd" d="M45 55H0.161807L0 0H45V55Z" fill="black"/>
<path fill-rule="evenodd" clip-rule="evenodd" d="M3.77478 11.2544H40.2853V3.961H3.77478V11.2544ZM3.77478 21.6112H40.2853V14.3178H3.77478V21.6112ZM3.77478 31.8221H40.2853V24.5285H3.77478V31.8221ZM3.77478 42.0329H40.2853V34.7394H3.77478V42.0329ZM4.31118 45.9918H40.8217V44.9546H4.31118V45.9918ZM39.0304 49.9221C39.0304 49.2345 38.416 48.678 37.6557 48.678C36.897 48.678 36.2817 49.2351 36.2817 49.9221C36.2817 50.6085 36.897 51.1672 37.6557 51.1672C38.4152 51.1672 39.0304 50.6085 39.0304 49.9221ZM34.2368 49.9221C34.2368 49.2345 33.6224 48.678 32.8621 48.678C32.1034 48.678 31.488 49.2351 31.488 49.9221C31.488 50.6085 32.1034 51.1672 32.8621 51.1672C33.6215 51.1672 34.2368 50.6085 34.2368 49.9221Z" fill="white"/>
<path fill-rule="evenodd" clip-rule="evenodd" d="M31.8022 8.52314H37.9763V6.44958H31.8022V8.52314ZM31.8022 19.1716H37.9763V17.0974H31.8022V19.1716ZM31.8022 29.5282H37.9763V27.454H31.8022V29.5282ZM31.8022 39.594H37.9763V37.5189H31.8022V39.594Z" fill="#002855"/>
</g>
<defs>
<clipPath id="clip0_53_11">
<rect width="45" height="55" fill="white"/>
</clipPath>
</defs>
</svg>
